<svg id="Capa_1" enable-background="new 0 0 512 512" height="512" viewBox="0 0 512 512" width="512" xmlns="http://www.w3.org/2000/svg"><g><g><path d="m156.18 48.595-48.799 89.922c-3.151 5.806-1.076 13.065 4.667 16.329l76.411 43.432c5.822 3.309 13.224 1.274 16.535-4.547l93.399-164.167h-110.233c-13.343 0-25.616 7.303-31.98 19.031z" fill="#26d192"/><path d="m298.391 29.559-93.396 164.169c-3.317 5.82-10.714 7.86-16.534 4.553l-19.944-11.332c4.862.783 9.921-1.452 12.496-5.985l86.154-151.405z" fill="#1ec186"/></g><g><path d="m400.585 116.626-33.658-67.008c-6.175-12.294-18.757-20.054-32.514-20.054h-97.315l74.718 126.765c-.245.11-.491.22-.736.33-4.7 2.116-4.508 8.858.304 10.706l64.519 24.777c2.99 1.148 6.344-.345 7.492-3.334l24.872-64.768c1.839-4.791-2.99-9.414-7.682-7.414z" fill="#72f4c3"/><path d="m408.269 124.036-24.879 64.767c-1.143 2.998-4.502 4.492-7.489 3.338l-19.522-7.5 23.272-60.605c1.323-3.437-.79-6.784-3.822-7.662-2.887-.837-5.352-2.728-6.701-5.414l-30.818-61.343c-6.171-12.29-18.749-20.058-32.512-20.058h28.618c13.753 0 26.331 7.768 32.512 20.058l33.656 67.013c4.698-1.999 9.519 2.616 7.685 7.406z" fill="#27e19d"/></g><g><path d="m335.567 374.976c-.906-3.72-5.706-5.314-8.636-2.385l-50.427 50.427c-2.012 2.012-2.012 5.273 0 7.284l50.622 50.621c2.909 2.909 7.66 1.356 8.616-2.301h74.443c13.705 0 26.248-7.701 32.449-19.923l42.477-83.724h-149.544z" fill="#26d192"/><path d="m398.41 374.977 24.138 36.524c5.457 8.257 6.061 18.809 1.582 27.635l-9.928 19.564c-6.191 12.218-18.739 19.924-32.44 19.924h28.423c13.701 0 26.249-7.706 32.451-19.924l42.474-83.722h-86.7z" fill="#1ec186"/></g><g><path d="m233.976 468.997v-89.118c0-6.698-5.43-12.129-12.129-12.129h-199.791l51.416 94.394c6.373 11.7 18.63 18.981 31.953 18.981h116.422c6.698.001 12.129-5.429 12.129-12.128z" fill="#26d192"/><g fill="#1ec186"><path d="m106.788 367.755-44.37 74.101-40.362-74.101z"/><path d="m233.974 379.881v89.121c0 6.696-5.429 12.125-12.125 12.125h-31.822c6.696 0 12.125-5.429 12.125-12.125v-89.121c0-6.696-5.429-12.125-12.125-12.125h31.822c6.696-.001 12.125 5.429 12.125 12.125z"/></g></g><g><path d="m136.37 289.004-8.972-67.519c-.443-3.336-3.507-5.68-6.842-5.237l-67.779 9.006c-5.104.678-7.006 6.887-3.51 10.341l-42.776 61.655c-7.843 11.304-8.639 26.064-2.058 38.146l46.549 85.459 75.582-126.251c.027.02.053.041.08.061 4.314 3.274 10.439-.292 9.726-5.661z" fill="#72f4c3"/><path d="m126.64 294.665c-.021-.021-.051-.041-.072-.062l-75.585 126.248-15.545-28.536 61.52-102.776 1.706-2.851c.933-1.558 2.756-2.231 4.539-1.885.009.002.018.003.027.005 3.793.676 7.684-2.484 7.101-6.821l-7.881-59.338 18.1-2.4c3.338-.443 6.408 1.906 6.851 5.233l8.973 67.528c.712 5.366-5.418 8.93-9.734 5.655z" fill="#27e19d"/></g><g><path d="m505.558 292.61-58.513-84.784c-3.589-5.201-10.571-6.774-16.044-3.616l-76.254 44.003c-6.052 3.492-7.909 11.363-4.056 17.193l107.496 162.638 49.874-98.304c6.036-11.899 5.076-26.148-2.503-37.13z" fill="#72f4c3"/><path d="m508.062 329.742-49.881 98.299-16.73-25.322 37.025-72.978c6.037-11.899 5.079-26.146-2.503-37.128l-56.443-81.775 11.476-6.624c5.47-3.163 12.455-1.587 16.04 3.616l58.514 84.784c7.581 10.982 8.539 25.23 2.502 37.128z" fill="#27e19d"/></g></g></svg>