<?xml version="1.0" encoding="UTF-8" standalone="no"?>
<svg
   xmlns:osb="http://www.openswatchbook.org/uri/2009/osb"
   xmlns:dc="http://purl.org/dc/elements/1.1/"
   xmlns:cc="http://creativecommons.org/ns#"
   xmlns:rdf="http://www.w3.org/1999/02/22-rdf-syntax-ns#"
   xmlns:svg="http://www.w3.org/2000/svg"
   xmlns="http://www.w3.org/2000/svg"
   xmlns:xlink="http://www.w3.org/1999/xlink"
   xmlns:sodipodi="http://sodipodi.sourceforge.net/DTD/sodipodi-0.dtd"
   xmlns:inkscape="http://www.inkscape.org/namespaces/inkscape"
   width="780"
   height="120"
   viewBox="0 0 206.37501 31.75"
   version="1.1"
   id="svg839"
   inkscape:version="1.0.2 (e86c870879, 2021-01-15)"
   sodipodi:docname="owl-tools-top-banner.svg">
  <defs
     id="defs833">
    <linearGradient
       inkscape:collect="always"
       id="linearGradient3366">
      <stop
         style="stop-color:#000000;stop-opacity:1;"
         offset="0"
         id="stop3362" />
      <stop
         style="stop-color:#000000;stop-opacity:0;"
         offset="1"
         id="stop3364" />
    </linearGradient>
    <linearGradient
       id="linearGradient1359"
       osb:paint="solid">
      <stop
         style="stop-color:#0d1117;stop-opacity:1;"
         offset="0"
         id="stop1357" />
    </linearGradient>
    <linearGradient
       id="linearGradient4888"
       osb:paint="solid">
      <stop
         style="stop-color:#ffffff;stop-opacity:1;"
         offset="0"
         id="stop4886" />
    </linearGradient>
    <linearGradient
       inkscape:collect="always"
       xlink:href="#linearGradient3366"
       id="linearGradient3370"
       x1="74.531693"
       y1="26.458332"
       x2="131.84331"
       y2="26.458332"
       gradientUnits="userSpaceOnUse" />
  </defs>
  <sodipodi:namedview
     id="base"
     pagecolor="#ffffff"
     bordercolor="#666666"
     borderopacity="1.0"
     inkscape:pageopacity="0"
     inkscape:pageshadow="2"
     inkscape:zoom="0.94236332"
     inkscape:cx="396.97759"
     inkscape:cy="15.167243"
     inkscape:document-units="px"
     inkscape:current-layer="g19884"
     inkscape:document-rotation="0"
     showgrid="false"
     units="px"
     inkscape:window-width="1366"
     inkscape:window-height="713"
     inkscape:window-x="0"
     inkscape:window-y="0"
     inkscape:window-maximized="1"
     showborder="true"
     fit-margin-top="0"
     fit-margin-left="0"
     fit-margin-right="0"
     fit-margin-bottom="0" />
  <metadata
     id="metadata836">
    <rdf:RDF>
      <cc:Work
         rdf:about="">
        <dc:format>image/svg+xml</dc:format>
        <dc:type
           rdf:resource="http://purl.org/dc/dcmitype/StillImage" />
        <dc:title />
      </cc:Work>
    </rdf:RDF>
  </metadata>
  <g
     inkscape:groupmode="layer"
     id="layer5"
     inkscape:label="Owl Tool Brand"
     style="display:inline"
     transform="translate(-62.361078,-12.590067)"
     sodipodi:insensitive="true">
    <g
       inkscape:groupmode="layer"
       id="layer2"
       inkscape:label="Text"
       style="display:inline;opacity:0.99"
       sodipodi:insensitive="true" />
    <g
       inkscape:groupmode="layer"
       id="layer4"
       inkscape:label="Coruja">
      <g
         id="g19884"
         transform="translate(62.331992,2.0067331)">
        <g
           id="g865"
           transform="translate(-5.7897336)">
          <text
             xml:space="preserve"
             style="font-style:normal;font-variant:normal;font-weight:normal;font-stretch:normal;font-size:21.3454px;line-height:1.25;font-family:Roboto;-inkscape-font-specification:'Roboto, Normal';font-variant-ligatures:normal;font-variant-caps:normal;font-variant-numeric:normal;font-variant-east-asian:normal;fill:#b3b3b3;fill-opacity:1;stroke-width:0.533639"
             x="61.160301"
             y="33.980759"
             id="text19904"><tspan
               sodipodi:role="line"
               id="tspan19902"
               x="61.160301"
               y="33.980759"
               style="font-style:normal;font-variant:normal;font-weight:normal;font-stretch:normal;font-size:21.3454px;font-family:Roboto;-inkscape-font-specification:'Roboto, Normal';font-variant-ligatures:normal;font-variant-caps:normal;font-variant-numeric:normal;font-variant-east-asian:normal;fill:#b3b3b3;fill-opacity:1;stroke-width:0.533639">Owl T    <tspan
   style="font-size:20.6399px"
   id="tspan19910"> </tspan>ls</tspan></text>
          <g
             id="g1310"
             transform="matrix(0.59343023,0,0,0.60368193,113.10972,11.986385)">
            <path
               d="m 23.972805,32.326552 c 1.169524,1.754287 2.735852,3.195308 4.59456,4.176873 l -4.59456,4.594561 -4.594561,-4.594561 c 1.858708,-0.981565 3.44592,-2.422586 4.594561,-4.176873 M 34.414988,22.302055 a 4.1768736,4.1768736 0 0 0 -4.176873,4.176874 4.1768736,4.1768736 0 0 0 4.176873,4.176873 4.1768736,4.1768736 0 0 0 4.176874,-4.176873 c 0,-2.318165 -1.879593,-4.176874 -4.176874,-4.176874 m -20.884367,0 a 4.1768736,4.1768736 0 0 0 -4.1768739,4.176874 4.1768736,4.1768736 0 0 0 4.1768739,4.176873 4.1768736,4.1768736 0 0 0 4.176873,-4.176873 c 0,-2.318165 -1.879593,-4.176874 -4.176873,-4.176874 m 20.884367,-5.221092 a 8.3537471,8.3537471 0 0 1 8.353748,8.353747 8.3537471,8.3537471 0 0 1 -8.353748,8.353747 8.3537471,8.3537471 0 0 1 -8.353747,-8.353747 8.3537471,8.3537471 0 0 1 8.353747,-8.353747 m -20.884367,0 A 8.3537471,8.3537471 0 0 1 21.884368,25.43471 8.3537471,8.3537471 0 0 1 13.530621,33.788457 8.3537471,8.3537471 0 0 1 5.1768736,25.43471 8.3537471,8.3537471 0 0 1 13.530621,17.080963 M 3.5896616,1 C 7.2653103,8.7272161 4.6129956,14.491302 2.1486402,20.213618 1.396803,21.884368 1,23.61777 1,25.43471 a 12.530621,12.530621 0 0 0 12.530621,12.530621 c 0.438571,-0.02088 0.877143,-0.04177 1.315715,-0.104422 l 6.181773,6.181773 2.944696,2.902927 2.944695,-2.902927 6.181773,-6.181773 c 0.438572,0.06265 0.877144,0.08354 1.315715,0.104422 A 12.530621,12.530621 0 0 0 46.945609,25.43471 c 0,-1.81694 -0.396803,-3.550342 -1.14864,-5.221092 C 43.332613,14.491302 40.680299,8.7272161 44.355947,1 38.842474,5.3021798 30.989952,8.7063317 23.972805,8.7272161 16.955657,8.7063317 9.1031347,5.3021798 3.5896616,1 Z"
               id="path2"
               style="fill:#b3b3b3;stroke-width:2.08844"
               inkscape:export-xdpi="209.45454"
               inkscape:export-ydpi="209.45454" />
            <circle
               style="fill:#8257e6;fill-opacity:1;stroke-width:2.397"
               id="path834"
               cx="34.392414"
               cy="26.21608"
               r="4.712235" />
            <circle
               style="fill:#8257e6;fill-opacity:1;stroke-width:2.397"
               id="circle836"
               cx="13.593348"
               cy="26.223047"
               r="4.712235" />
          </g>
        </g>
        <text
           xml:space="preserve"
           style="font-size:10.5833px;line-height:1.25;font-family:'Marked Fool';-inkscape-font-specification:'Marked Fool';stroke-width:0.264583"
           x="116.37244"
           y="26.478922"
           id="text19908"><tspan
             sodipodi:role="line"
             id="tspan19906"
             x="116.37244"
             y="26.478922"
             style="stroke-width:0.264583" /></text>
      </g>
    </g>
  </g>
</svg>
